<mxfile host="Electron" agent="Mozilla/5.0 (Windows NT 10.0; Win64; x64) AppleWebKit/537.36 (KHTML, like Gecko) draw.io/24.7.17 Chrome/128.0.6613.36 Electron/32.0.1 Safari/537.36" version="24.7.17">
  <diagram id="8sWOh73z4wpxXgzZ8j0H" name="Page-1">
    <mxGraphModel dx="3056" dy="3388" grid="1" gridSize="10" guides="1" tooltips="1" connect="1" arrows="1" fold="1" page="1" pageScale="1" pageWidth="850" pageHeight="1100" math="0" shadow="0">
      <root>
        <mxCell id="0" />
        <mxCell id="1" parent="0" />
        <mxCell id="dJNBDPaRLZTKmS_XL867-111" value="" style="rounded=0;whiteSpace=wrap;html=1;" vertex="1" parent="1">
          <mxGeometry x="70" y="-1170" width="120" height="60" as="geometry" />
        </mxCell>
        <mxCell id="5" style="edgeStyle=none;html=1;exitX=0.5;exitY=0.5;exitDx=0;exitDy=0;exitPerimeter=0;entryX=0;entryY=0.641;entryDx=0;entryDy=0;entryPerimeter=0;" parent="1" source="2" target="17" edge="1">
          <mxGeometry relative="1" as="geometry">
            <mxPoint x="-480" y="140" as="targetPoint" />
          </mxGeometry>
        </mxCell>
        <mxCell id="2" value="Пользователь" style="shape=umlActor;verticalLabelPosition=bottom;verticalAlign=top;html=1;outlineConnect=0;" parent="1" vertex="1">
          <mxGeometry x="-530" y="180" width="30" height="60" as="geometry" />
        </mxCell>
        <mxCell id="13" style="edgeStyle=none;html=1;entryX=0.003;entryY=0.75;entryDx=0;entryDy=0;entryPerimeter=0;exitX=1.001;exitY=0.634;exitDx=0;exitDy=0;exitPerimeter=0;" parent="1" source="17" target="64" edge="1">
          <mxGeometry relative="1" as="geometry">
            <mxPoint x="80" y="60" as="sourcePoint" />
            <mxPoint x="50" y="270" as="targetPoint" />
          </mxGeometry>
        </mxCell>
        <mxCell id="6" value="" style="endArrow=none;html=1;dashed=1;" parent="1" edge="1">
          <mxGeometry width="50" height="50" relative="1" as="geometry">
            <mxPoint x="-120" y="690" as="sourcePoint" />
            <mxPoint x="-120" y="-40" as="targetPoint" />
            <Array as="points">
              <mxPoint x="-120" y="330" />
            </Array>
          </mxGeometry>
        </mxCell>
        <mxCell id="7" value="Интернет" style="text;html=1;strokeColor=none;fillColor=none;align=center;verticalAlign=middle;whiteSpace=wrap;rounded=0;" parent="1" vertex="1">
          <mxGeometry x="-290" y="-40" width="60" height="30" as="geometry" />
        </mxCell>
        <mxCell id="9" value="API Шлюз" style="swimlane;fontStyle=0;childLayout=stackLayout;horizontal=1;startSize=30;horizontalStack=0;resizeParent=1;resizeParentMax=0;resizeLast=0;collapsible=1;marginBottom=0;whiteSpace=wrap;html=1;" parent="1" vertex="1">
          <mxGeometry x="190" y="140" width="170" height="240" as="geometry" />
        </mxCell>
        <mxCell id="10" value="." style="text;strokeColor=none;fillColor=none;align=left;verticalAlign=middle;spacingLeft=4;spacingRight=4;overflow=hidden;points=[[0,0.5],[1,0.5]];portConstraint=eastwest;rotatable=0;whiteSpace=wrap;html=1;" parent="9" vertex="1">
          <mxGeometry y="30" width="170" height="30" as="geometry" />
        </mxCell>
        <mxCell id="11" value="Роутинг запросов" style="text;strokeColor=none;fillColor=none;align=left;verticalAlign=middle;spacingLeft=4;spacingRight=4;overflow=hidden;points=[[0,0.5],[1,0.5]];portConstraint=eastwest;rotatable=0;whiteSpace=wrap;html=1;" parent="9" vertex="1">
          <mxGeometry y="60" width="170" height="30" as="geometry" />
        </mxCell>
        <mxCell id="30" value="Защита, антиспам и т.п.?" style="text;strokeColor=none;fillColor=none;align=left;verticalAlign=middle;spacingLeft=4;spacingRight=4;overflow=hidden;points=[[0,0.5],[1,0.5]];portConstraint=eastwest;rotatable=0;whiteSpace=wrap;html=1;" parent="9" vertex="1">
          <mxGeometry y="90" width="170" height="30" as="geometry" />
        </mxCell>
        <mxCell id="31" value="&lt;font color=&quot;#ff0000&quot;&gt;.&lt;/font&gt;" style="text;strokeColor=none;fillColor=none;align=left;verticalAlign=middle;spacingLeft=4;spacingRight=4;overflow=hidden;points=[[0,0.5],[1,0.5]];portConstraint=eastwest;rotatable=0;whiteSpace=wrap;html=1;" parent="9" vertex="1">
          <mxGeometry y="120" width="170" height="30" as="geometry" />
        </mxCell>
        <mxCell id="44" value="Rate limiting" style="text;strokeColor=none;fillColor=none;align=left;verticalAlign=middle;spacingLeft=4;spacingRight=4;overflow=hidden;points=[[0,0.5],[1,0.5]];portConstraint=eastwest;rotatable=0;whiteSpace=wrap;html=1;" parent="9" vertex="1">
          <mxGeometry y="150" width="170" height="30" as="geometry" />
        </mxCell>
        <mxCell id="45" value="Логирование" style="text;strokeColor=none;fillColor=none;align=left;verticalAlign=middle;spacingLeft=4;spacingRight=4;overflow=hidden;points=[[0,0.5],[1,0.5]];portConstraint=eastwest;rotatable=0;whiteSpace=wrap;html=1;" parent="9" vertex="1">
          <mxGeometry y="180" width="170" height="30" as="geometry" />
        </mxCell>
        <mxCell id="51" value="Базовая проверка JWT" style="text;strokeColor=none;fillColor=none;align=left;verticalAlign=middle;spacingLeft=4;spacingRight=4;overflow=hidden;points=[[0,0.5],[1,0.5]];portConstraint=eastwest;rotatable=0;whiteSpace=wrap;html=1;" parent="9" vertex="1">
          <mxGeometry y="210" width="170" height="30" as="geometry" />
        </mxCell>
        <mxCell id="15" value="&lt;span style=&quot;font-weight: 700;&quot;&gt;Устройство пользователя&lt;/span&gt;" style="swimlane;fontStyle=0;childLayout=stackLayout;horizontal=1;startSize=30;horizontalStack=0;resizeParent=1;resizeParentMax=0;resizeLast=0;collapsible=1;marginBottom=0;whiteSpace=wrap;html=1;" parent="1" vertex="1">
          <mxGeometry x="-450" y="130" width="160" height="90" as="geometry" />
        </mxCell>
        <mxCell id="16" value="Просмотр объявлений" style="text;strokeColor=none;fillColor=none;align=left;verticalAlign=middle;spacingLeft=4;spacingRight=4;overflow=hidden;points=[[0,0.5],[1,0.5]];portConstraint=eastwest;rotatable=0;whiteSpace=wrap;html=1;" parent="15" vertex="1">
          <mxGeometry y="30" width="160" height="30" as="geometry" />
        </mxCell>
        <mxCell id="17" value="Публикация объявлений" style="text;strokeColor=none;fillColor=none;align=left;verticalAlign=middle;spacingLeft=4;spacingRight=4;overflow=hidden;points=[[0,0.5],[1,0.5]];portConstraint=eastwest;rotatable=0;whiteSpace=wrap;html=1;" parent="15" vertex="1">
          <mxGeometry y="60" width="160" height="30" as="geometry" />
        </mxCell>
        <mxCell id="23" value="Сервис Авторизации" style="swimlane;fontStyle=0;childLayout=stackLayout;horizontal=1;startSize=30;horizontalStack=0;resizeParent=1;resizeParentMax=0;resizeLast=0;collapsible=1;marginBottom=0;whiteSpace=wrap;html=1;" parent="1" vertex="1">
          <mxGeometry x="405" y="-120" width="140" height="180" as="geometry" />
        </mxCell>
        <mxCell id="24" value="Генерация токенов" style="text;strokeColor=none;fillColor=none;align=left;verticalAlign=middle;spacingLeft=4;spacingRight=4;overflow=hidden;points=[[0,0.5],[1,0.5]];portConstraint=eastwest;rotatable=0;whiteSpace=wrap;html=1;" parent="23" vertex="1">
          <mxGeometry y="30" width="140" height="30" as="geometry" />
        </mxCell>
        <mxCell id="26" value="Рефреш токенов" style="text;strokeColor=none;fillColor=none;align=left;verticalAlign=middle;spacingLeft=4;spacingRight=4;overflow=hidden;points=[[0,0.5],[1,0.5]];portConstraint=eastwest;rotatable=0;whiteSpace=wrap;html=1;" parent="23" vertex="1">
          <mxGeometry y="60" width="140" height="30" as="geometry" />
        </mxCell>
        <mxCell id="48" value="Проверка токенов" style="text;strokeColor=none;fillColor=none;align=left;verticalAlign=middle;spacingLeft=4;spacingRight=4;overflow=hidden;points=[[0,0.5],[1,0.5]];portConstraint=eastwest;rotatable=0;whiteSpace=wrap;html=1;" parent="23" vertex="1">
          <mxGeometry y="90" width="140" height="30" as="geometry" />
        </mxCell>
        <mxCell id="49" value="Регистрация" style="text;strokeColor=none;fillColor=none;align=left;verticalAlign=middle;spacingLeft=4;spacingRight=4;overflow=hidden;points=[[0,0.5],[1,0.5]];portConstraint=eastwest;rotatable=0;whiteSpace=wrap;html=1;" parent="23" vertex="1">
          <mxGeometry y="120" width="140" height="30" as="geometry" />
        </mxCell>
        <mxCell id="50" value="Отзыв токенов" style="text;strokeColor=none;fillColor=none;align=left;verticalAlign=middle;spacingLeft=4;spacingRight=4;overflow=hidden;points=[[0,0.5],[1,0.5]];portConstraint=eastwest;rotatable=0;whiteSpace=wrap;html=1;" parent="23" vertex="1">
          <mxGeometry y="150" width="140" height="30" as="geometry" />
        </mxCell>
        <mxCell id="40" value="Сервис SwapMeet" style="swimlane;fontStyle=0;childLayout=stackLayout;horizontal=1;startSize=30;horizontalStack=0;resizeParent=1;resizeParentMax=0;resizeLast=0;collapsible=1;marginBottom=0;whiteSpace=wrap;html=1;" parent="1" vertex="1">
          <mxGeometry x="890" y="152.51999999999998" width="470" height="420" as="geometry" />
        </mxCell>
        <mxCell id="41" value="Получить список категорий" style="text;strokeColor=none;fillColor=none;align=left;verticalAlign=middle;spacingLeft=4;spacingRight=4;overflow=hidden;points=[[0,0.5],[1,0.5]];portConstraint=eastwest;rotatable=0;whiteSpace=wrap;html=1;" parent="40" vertex="1">
          <mxGeometry y="30" width="470" height="30" as="geometry" />
        </mxCell>
        <mxCell id="42" value="Получить список объявлений (с отбором)" style="text;strokeColor=none;fillColor=none;align=left;verticalAlign=middle;spacingLeft=4;spacingRight=4;overflow=hidden;points=[[0,0.5],[1,0.5]];portConstraint=eastwest;rotatable=0;whiteSpace=wrap;html=1;" parent="40" vertex="1">
          <mxGeometry y="60" width="470" height="30" as="geometry" />
        </mxCell>
        <mxCell id="43" value="Создать объявление" style="text;strokeColor=none;fillColor=none;align=left;verticalAlign=middle;spacingLeft=4;spacingRight=4;overflow=hidden;points=[[0,0.5],[1,0.5]];portConstraint=eastwest;rotatable=0;whiteSpace=wrap;html=1;" parent="40" vertex="1">
          <mxGeometry y="90" width="470" height="30" as="geometry" />
        </mxCell>
        <mxCell id="MJheXWktatmjZYUgOydh-61" value="Редактировать объявление" style="text;strokeColor=none;fillColor=none;align=left;verticalAlign=middle;spacingLeft=4;spacingRight=4;overflow=hidden;points=[[0,0.5],[1,0.5]];portConstraint=eastwest;rotatable=0;whiteSpace=wrap;html=1;" parent="40" vertex="1">
          <mxGeometry y="120" width="470" height="30" as="geometry" />
        </mxCell>
        <mxCell id="MJheXWktatmjZYUgOydh-62" value="Отправить на модерацию объявление" style="text;strokeColor=none;fillColor=none;align=left;verticalAlign=middle;spacingLeft=4;spacingRight=4;overflow=hidden;points=[[0,0.5],[1,0.5]];portConstraint=eastwest;rotatable=0;whiteSpace=wrap;html=1;" parent="40" vertex="1">
          <mxGeometry y="150" width="470" height="30" as="geometry" />
        </mxCell>
        <mxCell id="MJheXWktatmjZYUgOydh-63" value="Снять с публикации объявление" style="text;strokeColor=none;fillColor=none;align=left;verticalAlign=middle;spacingLeft=4;spacingRight=4;overflow=hidden;points=[[0,0.5],[1,0.5]];portConstraint=eastwest;rotatable=0;whiteSpace=wrap;html=1;" parent="40" vertex="1">
          <mxGeometry y="180" width="470" height="30" as="geometry" />
        </mxCell>
        <mxCell id="MJheXWktatmjZYUgOydh-65" value="Удалить объявление" style="text;strokeColor=none;fillColor=none;align=left;verticalAlign=middle;spacingLeft=4;spacingRight=4;overflow=hidden;points=[[0,0.5],[1,0.5]];portConstraint=eastwest;rotatable=0;whiteSpace=wrap;html=1;" parent="40" vertex="1">
          <mxGeometry y="210" width="470" height="30" as="geometry" />
        </mxCell>
        <mxCell id="MJheXWktatmjZYUgOydh-66" value="..." style="text;strokeColor=none;fillColor=none;align=left;verticalAlign=middle;spacingLeft=4;spacingRight=4;overflow=hidden;points=[[0,0.5],[1,0.5]];portConstraint=eastwest;rotatable=0;whiteSpace=wrap;html=1;" parent="40" vertex="1">
          <mxGeometry y="240" width="470" height="30" as="geometry" />
        </mxCell>
        <mxCell id="MJheXWktatmjZYUgOydh-67" value="..." style="text;strokeColor=none;fillColor=none;align=left;verticalAlign=middle;spacingLeft=4;spacingRight=4;overflow=hidden;points=[[0,0.5],[1,0.5]];portConstraint=eastwest;rotatable=0;whiteSpace=wrap;html=1;" parent="40" vertex="1">
          <mxGeometry y="270" width="470" height="30" as="geometry" />
        </mxCell>
        <mxCell id="MJheXWktatmjZYUgOydh-68" value="..." style="text;strokeColor=none;fillColor=none;align=left;verticalAlign=middle;spacingLeft=4;spacingRight=4;overflow=hidden;points=[[0,0.5],[1,0.5]];portConstraint=eastwest;rotatable=0;whiteSpace=wrap;html=1;" parent="40" vertex="1">
          <mxGeometry y="300" width="470" height="30" as="geometry" />
        </mxCell>
        <mxCell id="MJheXWktatmjZYUgOydh-69" value="Снять с публикации объявление как не прошедшее проверку (МОДЕРАТОР)" style="text;strokeColor=#9673a6;fillColor=#e1d5e7;align=left;verticalAlign=middle;spacingLeft=4;spacingRight=4;overflow=hidden;points=[[0,0.5],[1,0.5]];portConstraint=eastwest;rotatable=0;whiteSpace=wrap;html=1;" parent="40" vertex="1">
          <mxGeometry y="330" width="470" height="30" as="geometry" />
        </mxCell>
        <mxCell id="MJheXWktatmjZYUgOydh-70" value="Получить список объявлений для проверки (МОДЕРАТОР)" style="text;strokeColor=#9673a6;fillColor=#e1d5e7;align=left;verticalAlign=middle;spacingLeft=4;spacingRight=4;overflow=hidden;points=[[0,0.5],[1,0.5]];portConstraint=eastwest;rotatable=0;whiteSpace=wrap;html=1;" parent="40" vertex="1">
          <mxGeometry y="360" width="470" height="30" as="geometry" />
        </mxCell>
        <mxCell id="MJheXWktatmjZYUgOydh-72" value="Одобрить(опубликовать) объявление (МОДЕРАТОР)" style="text;strokeColor=#9673a6;fillColor=#e1d5e7;align=left;verticalAlign=middle;spacingLeft=4;spacingRight=4;overflow=hidden;points=[[0,0.5],[1,0.5]];portConstraint=eastwest;rotatable=0;whiteSpace=wrap;html=1;" parent="40" vertex="1">
          <mxGeometry y="390" width="470" height="30" as="geometry" />
        </mxCell>
        <mxCell id="52" value="" style="swimlane;startSize=0;" parent="1" vertex="1">
          <mxGeometry x="360" y="-180" width="330" height="270" as="geometry" />
        </mxCell>
        <mxCell id="27" value="" style="shape=cylinder3;whiteSpace=wrap;html=1;boundedLbl=1;backgroundOutline=1;size=15;" parent="52" vertex="1">
          <mxGeometry x="240" y="95" width="60" height="80" as="geometry" />
        </mxCell>
        <mxCell id="MJheXWktatmjZYUgOydh-141" value="Docker" style="text;html=1;align=center;verticalAlign=middle;whiteSpace=wrap;rounded=0;" parent="52" vertex="1">
          <mxGeometry x="135" width="60" height="30" as="geometry" />
        </mxCell>
        <mxCell id="53" style="edgeStyle=none;html=1;exitX=1;exitY=0.5;exitDx=0;exitDy=0;" parent="1" source="26" target="27" edge="1">
          <mxGeometry relative="1" as="geometry" />
        </mxCell>
        <mxCell id="54" value="" style="endArrow=classic;html=1;exitX=1.008;exitY=0.007;exitDx=0;exitDy=0;exitPerimeter=0;" parent="1" source="11" edge="1">
          <mxGeometry width="50" height="50" relative="1" as="geometry">
            <mxPoint x="520" y="300" as="sourcePoint" />
            <mxPoint x="480" y="90" as="targetPoint" />
            <Array as="points">
              <mxPoint x="480" y="200" />
            </Array>
          </mxGeometry>
        </mxCell>
        <mxCell id="55" value="REST" style="text;html=1;strokeColor=none;fillColor=none;align=center;verticalAlign=middle;whiteSpace=wrap;rounded=0;" parent="1" vertex="1">
          <mxGeometry x="-220" y="180" width="60" height="30" as="geometry" />
        </mxCell>
        <mxCell id="56" value="gRPC" style="text;html=1;strokeColor=none;fillColor=none;align=center;verticalAlign=middle;whiteSpace=wrap;rounded=0;" parent="1" vertex="1">
          <mxGeometry x="360" y="165.02" width="60" height="30" as="geometry" />
        </mxCell>
        <mxCell id="58" value="Сервис логирования" style="rounded=0;whiteSpace=wrap;html=1;fillColor=#fff2cc;strokeColor=#d6b656;" parent="1" vertex="1">
          <mxGeometry x="230" y="810" width="120" height="60" as="geometry" />
        </mxCell>
        <mxCell id="59" value="Сервис мониторинга" style="rounded=0;whiteSpace=wrap;html=1;fillColor=#f8cecc;strokeColor=#b85450;" parent="1" vertex="1">
          <mxGeometry x="230" y="890" width="120" height="60" as="geometry" />
        </mxCell>
        <mxCell id="60" value="Сервис хранения фотографий" style="rounded=0;whiteSpace=wrap;html=1;fillColor=#f8cecc;strokeColor=#b85450;" parent="1" vertex="1">
          <mxGeometry x="100" y="890" width="120" height="60" as="geometry" />
        </mxCell>
        <mxCell id="61" value="Фронтенд" style="shape=note;whiteSpace=wrap;html=1;backgroundOutline=1;darkOpacity=0.05;fillColor=#fff2cc;strokeColor=#d6b656;" parent="1" vertex="1">
          <mxGeometry x="-200" y="830" width="140" height="50" as="geometry" />
        </mxCell>
        <mxCell id="MJheXWktatmjZYUgOydh-73" value="Kafka" style="rounded=0;whiteSpace=wrap;html=1;fillColor=#fff2cc;strokeColor=#d6b656;" parent="1" vertex="1">
          <mxGeometry x="100" y="810" width="120" height="60" as="geometry" />
        </mxCell>
        <mxCell id="MJheXWktatmjZYUgOydh-74" value="" style="shape=cylinder3;whiteSpace=wrap;html=1;boundedLbl=1;backgroundOutline=1;size=15;" parent="1" vertex="1">
          <mxGeometry x="1500" y="187.51999999999998" width="60" height="80" as="geometry" />
        </mxCell>
        <mxCell id="MJheXWktatmjZYUgOydh-75" style="edgeStyle=orthogonalEdgeStyle;rounded=0;orthogonalLoop=1;jettySize=auto;html=1;entryX=0;entryY=0.5;entryDx=0;entryDy=0;entryPerimeter=0;" parent="1" source="42" target="MJheXWktatmjZYUgOydh-74" edge="1">
          <mxGeometry relative="1" as="geometry" />
        </mxCell>
        <mxCell id="MJheXWktatmjZYUgOydh-108" style="edgeStyle=orthogonalEdgeStyle;rounded=0;orthogonalLoop=1;jettySize=auto;html=1;exitX=1;exitY=0.75;exitDx=0;exitDy=0;entryX=0.25;entryY=1;entryDx=0;entryDy=0;strokeColor=#0000FF;" parent="1" source="MJheXWktatmjZYUgOydh-76" target="MJheXWktatmjZYUgOydh-100" edge="1">
          <mxGeometry relative="1" as="geometry">
            <Array as="points">
              <mxPoint x="1190" y="1147.52" />
              <mxPoint x="1190" y="1632.52" />
              <mxPoint x="1350" y="1632.52" />
            </Array>
          </mxGeometry>
        </mxCell>
        <mxCell id="MJheXWktatmjZYUgOydh-76" value="Сервис SwapMeet 1" style="rounded=0;whiteSpace=wrap;html=1;" parent="1" vertex="1">
          <mxGeometry x="870" y="1102.52" width="120" height="60" as="geometry" />
        </mxCell>
        <mxCell id="MJheXWktatmjZYUgOydh-107" style="edgeStyle=orthogonalEdgeStyle;rounded=0;orthogonalLoop=1;jettySize=auto;html=1;exitX=1;exitY=0.75;exitDx=0;exitDy=0;entryX=0.5;entryY=1;entryDx=0;entryDy=0;strokeColor=#0000FF;" parent="1" source="MJheXWktatmjZYUgOydh-77" target="MJheXWktatmjZYUgOydh-100" edge="1">
          <mxGeometry relative="1" as="geometry">
            <Array as="points">
              <mxPoint x="1180" y="1237.52" />
              <mxPoint x="1180" y="1642.52" />
              <mxPoint x="1380" y="1642.52" />
            </Array>
          </mxGeometry>
        </mxCell>
        <mxCell id="MJheXWktatmjZYUgOydh-77" value="Сервис SwapMeet 2" style="rounded=0;whiteSpace=wrap;html=1;" parent="1" vertex="1">
          <mxGeometry x="870" y="1192.52" width="120" height="60" as="geometry" />
        </mxCell>
        <mxCell id="MJheXWktatmjZYUgOydh-106" style="edgeStyle=orthogonalEdgeStyle;rounded=0;orthogonalLoop=1;jettySize=auto;html=1;exitX=1;exitY=0.75;exitDx=0;exitDy=0;entryX=0.75;entryY=1;entryDx=0;entryDy=0;strokeColor=#0000FF;" parent="1" source="MJheXWktatmjZYUgOydh-78" target="MJheXWktatmjZYUgOydh-100" edge="1">
          <mxGeometry relative="1" as="geometry">
            <Array as="points">
              <mxPoint x="1170" y="1367.52" />
              <mxPoint x="1170" y="1652.52" />
              <mxPoint x="1410" y="1652.52" />
            </Array>
          </mxGeometry>
        </mxCell>
        <mxCell id="MJheXWktatmjZYUgOydh-78" value="Сервис SwapMeet N" style="rounded=0;whiteSpace=wrap;html=1;" parent="1" vertex="1">
          <mxGeometry x="870" y="1322.52" width="120" height="60" as="geometry" />
        </mxCell>
        <mxCell id="MJheXWktatmjZYUgOydh-82" style="edgeStyle=orthogonalEdgeStyle;rounded=0;orthogonalLoop=1;jettySize=auto;html=1;exitX=1;exitY=0.5;exitDx=0;exitDy=0;entryX=-0.004;entryY=0.419;entryDx=0;entryDy=0;entryPerimeter=0;" parent="1" source="MJheXWktatmjZYUgOydh-76" target="MJheXWktatmjZYUgOydh-79" edge="1">
          <mxGeometry relative="1" as="geometry">
            <Array as="points">
              <mxPoint x="1100" y="1132.52" />
              <mxPoint x="1100" y="996.52" />
            </Array>
          </mxGeometry>
        </mxCell>
        <mxCell id="MJheXWktatmjZYUgOydh-83" style="edgeStyle=orthogonalEdgeStyle;rounded=0;orthogonalLoop=1;jettySize=auto;html=1;exitX=1;exitY=0.5;exitDx=0;exitDy=0;entryX=-0.01;entryY=0.563;entryDx=0;entryDy=0;entryPerimeter=0;" parent="1" source="MJheXWktatmjZYUgOydh-77" target="MJheXWktatmjZYUgOydh-79" edge="1">
          <mxGeometry relative="1" as="geometry">
            <Array as="points">
              <mxPoint x="1110" y="1222.52" />
              <mxPoint x="1110" y="1007.52" />
            </Array>
          </mxGeometry>
        </mxCell>
        <mxCell id="MJheXWktatmjZYUgOydh-84" style="edgeStyle=orthogonalEdgeStyle;rounded=0;orthogonalLoop=1;jettySize=auto;html=1;exitX=1;exitY=0.5;exitDx=0;exitDy=0;entryX=0.002;entryY=0.72;entryDx=0;entryDy=0;entryPerimeter=0;" parent="1" source="MJheXWktatmjZYUgOydh-78" target="MJheXWktatmjZYUgOydh-79" edge="1">
          <mxGeometry relative="1" as="geometry">
            <Array as="points">
              <mxPoint x="1120" y="1352.52" />
              <mxPoint x="1120" y="1020.52" />
            </Array>
          </mxGeometry>
        </mxCell>
        <mxCell id="MJheXWktatmjZYUgOydh-85" value="Кэширование&amp;nbsp;&lt;div&gt;CDN&lt;/div&gt;" style="rounded=0;whiteSpace=wrap;html=1;fillColor=#fa6800;strokeColor=#C73500;fontColor=#000000;" parent="1" vertex="1">
          <mxGeometry x="-20" y="980" width="120" height="60" as="geometry" />
        </mxCell>
        <mxCell id="MJheXWktatmjZYUgOydh-86" value="+ логика использования CDN, корутин и т.п." style="shape=note;whiteSpace=wrap;html=1;backgroundOutline=1;darkOpacity=0.05;fillColor=#fff2cc;strokeColor=#d6b656;" parent="1" vertex="1">
          <mxGeometry x="-200" y="900" width="140" height="50" as="geometry" />
        </mxCell>
        <mxCell id="MJheXWktatmjZYUgOydh-87" value="" style="shape=cylinder3;whiteSpace=wrap;html=1;boundedLbl=1;backgroundOutline=1;size=15;" parent="1" vertex="1">
          <mxGeometry x="1285" y="1307.52" width="60" height="80" as="geometry" />
        </mxCell>
        <mxCell id="MJheXWktatmjZYUgOydh-90" value="pgx" style="text;html=1;align=center;verticalAlign=middle;whiteSpace=wrap;rounded=0;" parent="1" vertex="1">
          <mxGeometry x="1010" y="1322.52" width="60" height="30" as="geometry" />
        </mxCell>
        <mxCell id="MJheXWktatmjZYUgOydh-91" value="pgx" style="text;html=1;align=center;verticalAlign=middle;whiteSpace=wrap;rounded=0;" parent="1" vertex="1">
          <mxGeometry x="1010" y="1192.52" width="60" height="30" as="geometry" />
        </mxCell>
        <mxCell id="MJheXWktatmjZYUgOydh-92" value="pgx" style="text;html=1;align=center;verticalAlign=middle;whiteSpace=wrap;rounded=0;" parent="1" vertex="1">
          <mxGeometry x="1390" y="195.01999999999998" width="60" height="30" as="geometry" />
        </mxCell>
        <mxCell id="MJheXWktatmjZYUgOydh-93" value="pgx" style="text;html=1;align=center;verticalAlign=middle;whiteSpace=wrap;rounded=0;" parent="1" vertex="1">
          <mxGeometry x="1010" y="1102.52" width="60" height="30" as="geometry" />
        </mxCell>
        <mxCell id="MJheXWktatmjZYUgOydh-94" value="Slave 1 (Redis)" style="text;html=1;align=center;verticalAlign=middle;whiteSpace=wrap;rounded=0;" parent="1" vertex="1">
          <mxGeometry x="1250" y="1387.52" width="130" height="30" as="geometry" />
        </mxCell>
        <mxCell id="MJheXWktatmjZYUgOydh-95" value="" style="shape=cylinder3;whiteSpace=wrap;html=1;boundedLbl=1;backgroundOutline=1;size=15;" parent="1" vertex="1">
          <mxGeometry x="1415" y="1307.52" width="60" height="80" as="geometry" />
        </mxCell>
        <mxCell id="MJheXWktatmjZYUgOydh-96" value="Slave K (Redis)" style="text;html=1;align=center;verticalAlign=middle;whiteSpace=wrap;rounded=0;" parent="1" vertex="1">
          <mxGeometry x="1380" y="1392.52" width="130" height="30" as="geometry" />
        </mxCell>
        <mxCell id="MJheXWktatmjZYUgOydh-98" value="" style="endArrow=none;dashed=1;html=1;dashPattern=1 3;strokeWidth=2;rounded=0;entryX=1;entryY=0.5;entryDx=0;entryDy=0;entryPerimeter=0;exitX=0;exitY=0.5;exitDx=0;exitDy=0;exitPerimeter=0;" parent="1" source="MJheXWktatmjZYUgOydh-95" target="MJheXWktatmjZYUgOydh-87" edge="1">
          <mxGeometry width="50" height="50" relative="1" as="geometry">
            <mxPoint x="1600" y="1328.3895652173915" as="sourcePoint" />
            <mxPoint x="1600" y="1346.650434782609" as="targetPoint" />
          </mxGeometry>
        </mxCell>
        <mxCell id="MJheXWktatmjZYUgOydh-99" value="" style="swimlane;startSize=0;" parent="1" vertex="1">
          <mxGeometry x="1250" y="1212.52" width="280" height="370" as="geometry" />
        </mxCell>
        <mxCell id="MJheXWktatmjZYUgOydh-104" style="edgeStyle=orthogonalEdgeStyle;rounded=0;orthogonalLoop=1;jettySize=auto;html=1;exitX=0.25;exitY=0;exitDx=0;exitDy=0;entryX=0.5;entryY=1;entryDx=0;entryDy=0;" parent="1" source="MJheXWktatmjZYUgOydh-100" target="MJheXWktatmjZYUgOydh-94" edge="1">
          <mxGeometry relative="1" as="geometry" />
        </mxCell>
        <mxCell id="MJheXWktatmjZYUgOydh-105" style="edgeStyle=orthogonalEdgeStyle;rounded=0;orthogonalLoop=1;jettySize=auto;html=1;exitX=0.75;exitY=0;exitDx=0;exitDy=0;entryX=0.5;entryY=1;entryDx=0;entryDy=0;" parent="1" source="MJheXWktatmjZYUgOydh-100" target="MJheXWktatmjZYUgOydh-96" edge="1">
          <mxGeometry relative="1" as="geometry" />
        </mxCell>
        <mxCell id="MJheXWktatmjZYUgOydh-100" value="Gateway + балансировщик" style="rounded=0;whiteSpace=wrap;html=1;" parent="1" vertex="1">
          <mxGeometry x="1320" y="1492.52" width="120" height="60" as="geometry" />
        </mxCell>
        <mxCell id="MJheXWktatmjZYUgOydh-101" value="Механизм репликации&lt;div&gt;(+Kafka)&lt;/div&gt;" style="rounded=0;whiteSpace=wrap;html=1;" parent="1" vertex="1">
          <mxGeometry x="1320" y="1132.52" width="120" height="60" as="geometry" />
        </mxCell>
        <mxCell id="MJheXWktatmjZYUgOydh-102" style="edgeStyle=orthogonalEdgeStyle;rounded=0;orthogonalLoop=1;jettySize=auto;html=1;exitX=0.25;exitY=1;exitDx=0;exitDy=0;entryX=0.5;entryY=0;entryDx=0;entryDy=0;entryPerimeter=0;" parent="1" source="MJheXWktatmjZYUgOydh-101" target="MJheXWktatmjZYUgOydh-87" edge="1">
          <mxGeometry relative="1" as="geometry" />
        </mxCell>
        <mxCell id="MJheXWktatmjZYUgOydh-103" style="edgeStyle=orthogonalEdgeStyle;rounded=0;orthogonalLoop=1;jettySize=auto;html=1;exitX=0.75;exitY=1;exitDx=0;exitDy=0;entryX=0.5;entryY=0;entryDx=0;entryDy=0;entryPerimeter=0;" parent="1" source="MJheXWktatmjZYUgOydh-101" target="MJheXWktatmjZYUgOydh-95" edge="1">
          <mxGeometry relative="1" as="geometry" />
        </mxCell>
        <mxCell id="MJheXWktatmjZYUgOydh-110" value="Кластер БД" style="swimlane;whiteSpace=wrap;html=1;" parent="1" vertex="1">
          <mxGeometry x="1250" y="887.52" width="260" height="205" as="geometry" />
        </mxCell>
        <mxCell id="MJheXWktatmjZYUgOydh-88" value="Master (PostgreSQL)" style="text;html=1;align=center;verticalAlign=middle;whiteSpace=wrap;rounded=0;" parent="MJheXWktatmjZYUgOydh-110" vertex="1">
          <mxGeometry x="65" y="45" width="130" height="30" as="geometry" />
        </mxCell>
        <mxCell id="MJheXWktatmjZYUgOydh-79" value="" style="shape=cylinder3;whiteSpace=wrap;html=1;boundedLbl=1;backgroundOutline=1;size=15;" parent="MJheXWktatmjZYUgOydh-110" vertex="1">
          <mxGeometry x="100" y="75" width="60" height="80" as="geometry" />
        </mxCell>
        <mxCell id="MJheXWktatmjZYUgOydh-111" style="edgeStyle=orthogonalEdgeStyle;rounded=0;orthogonalLoop=1;jettySize=auto;html=1;exitX=0.5;exitY=1;exitDx=0;exitDy=0;exitPerimeter=0;" parent="1" source="MJheXWktatmjZYUgOydh-79" target="MJheXWktatmjZYUgOydh-101" edge="1">
          <mxGeometry relative="1" as="geometry" />
        </mxCell>
        <mxCell id="MJheXWktatmjZYUgOydh-112" value="" style="shape=cylinder3;whiteSpace=wrap;html=1;boundedLbl=1;backgroundOutline=1;size=15;" parent="1" vertex="1">
          <mxGeometry x="1500" y="312.52" width="60" height="80" as="geometry" />
        </mxCell>
        <mxCell id="MJheXWktatmjZYUgOydh-115" style="edgeStyle=orthogonalEdgeStyle;rounded=0;orthogonalLoop=1;jettySize=auto;html=1;exitX=0;exitY=0.5;exitDx=0;exitDy=0;exitPerimeter=0;entryX=0.994;entryY=0.677;entryDx=0;entryDy=0;entryPerimeter=0;" parent="1" source="MJheXWktatmjZYUgOydh-112" target="MJheXWktatmjZYUgOydh-63" edge="1">
          <mxGeometry relative="1" as="geometry" />
        </mxCell>
        <mxCell id="MJheXWktatmjZYUgOydh-116" value="For Read (Redis)" style="text;html=1;align=center;verticalAlign=middle;whiteSpace=wrap;rounded=0;" parent="1" vertex="1">
          <mxGeometry x="1570" y="337.52" width="60" height="30" as="geometry" />
        </mxCell>
        <mxCell id="MJheXWktatmjZYUgOydh-117" value="For Write (PostgreSQL)" style="text;html=1;align=center;verticalAlign=middle;whiteSpace=wrap;rounded=0;" parent="1" vertex="1">
          <mxGeometry x="1570" y="212.51999999999998" width="60" height="30" as="geometry" />
        </mxCell>
        <mxCell id="MJheXWktatmjZYUgOydh-118" style="edgeStyle=orthogonalEdgeStyle;rounded=0;orthogonalLoop=1;jettySize=auto;html=1;exitX=0.5;exitY=1;exitDx=0;exitDy=0;exitPerimeter=0;entryX=0.5;entryY=0;entryDx=0;entryDy=0;entryPerimeter=0;" parent="1" source="MJheXWktatmjZYUgOydh-74" target="MJheXWktatmjZYUgOydh-112" edge="1">
          <mxGeometry relative="1" as="geometry" />
        </mxCell>
        <mxCell id="MJheXWktatmjZYUgOydh-119" style="edgeStyle=orthogonalEdgeStyle;rounded=0;orthogonalLoop=1;jettySize=auto;html=1;exitX=1.004;exitY=-0.058;exitDx=0;exitDy=0;entryX=0;entryY=0.5;entryDx=0;entryDy=0;exitPerimeter=0;" parent="1" source="45" target="MJheXWktatmjZYUgOydh-62" edge="1">
          <mxGeometry relative="1" as="geometry">
            <Array as="points" />
          </mxGeometry>
        </mxCell>
        <mxCell id="MJheXWktatmjZYUgOydh-120" style="edgeStyle=orthogonalEdgeStyle;rounded=0;orthogonalLoop=1;jettySize=auto;html=1;exitX=0;exitY=0.5;exitDx=0;exitDy=0;entryX=0.722;entryY=0.998;entryDx=0;entryDy=0;entryPerimeter=0;" parent="1" source="43" target="52" edge="1">
          <mxGeometry relative="1" as="geometry" />
        </mxCell>
        <mxCell id="MJheXWktatmjZYUgOydh-121" value="gRPC" style="text;html=1;align=center;verticalAlign=middle;whiteSpace=wrap;rounded=0;" parent="1" vertex="1">
          <mxGeometry x="630" y="230" width="60" height="30" as="geometry" />
        </mxCell>
        <mxCell id="MJheXWktatmjZYUgOydh-122" value="gRPC" style="text;html=1;strokeColor=none;fillColor=none;align=center;verticalAlign=middle;whiteSpace=wrap;rounded=0;" parent="1" vertex="1">
          <mxGeometry x="470" y="282.52" width="60" height="30" as="geometry" />
        </mxCell>
        <mxCell id="MJheXWktatmjZYUgOydh-123" value="Проверка JWT на каждом запросе" style="shape=callout;whiteSpace=wrap;html=1;perimeter=calloutPerimeter;" parent="1" vertex="1">
          <mxGeometry x="710" y="180" width="120" height="80" as="geometry" />
        </mxCell>
        <mxCell id="MJheXWktatmjZYUgOydh-125" value="Как простой КЭШ" style="shape=callout;whiteSpace=wrap;html=1;perimeter=calloutPerimeter;direction=south;" parent="1" vertex="1">
          <mxGeometry x="1540" y="290.03999999999996" width="170" height="22.48" as="geometry" />
        </mxCell>
        <mxCell id="MJheXWktatmjZYUgOydh-126" value="" style="endArrow=classic;html=1;rounded=0;exitX=1.001;exitY=0.202;exitDx=0;exitDy=0;exitPerimeter=0;entryX=0;entryY=0;entryDx=0;entryDy=27.5;entryPerimeter=0;" parent="1" source="MJheXWktatmjZYUgOydh-63" target="MJheXWktatmjZYUgOydh-112" edge="1">
          <mxGeometry width="50" height="50" relative="1" as="geometry">
            <mxPoint x="1420" y="320" as="sourcePoint" />
            <mxPoint x="1470" y="270" as="targetPoint" />
          </mxGeometry>
        </mxCell>
        <mxCell id="MJheXWktatmjZYUgOydh-127" value="Write" style="text;html=1;align=center;verticalAlign=middle;whiteSpace=wrap;rounded=0;" parent="1" vertex="1">
          <mxGeometry x="1135" y="960" width="60" height="30" as="geometry" />
        </mxCell>
        <mxCell id="MJheXWktatmjZYUgOydh-128" value="&lt;font color=&quot;#0000ff&quot;&gt;Read&lt;/font&gt;" style="text;html=1;align=center;verticalAlign=middle;whiteSpace=wrap;rounded=0;" parent="1" vertex="1">
          <mxGeometry x="1190" y="1595" width="60" height="30" as="geometry" />
        </mxCell>
        <mxCell id="MJheXWktatmjZYUgOydh-129" value="" style="swimlane;startSize=0;" parent="1" vertex="1">
          <mxGeometry x="820" y="820" width="810" height="870" as="geometry" />
        </mxCell>
        <mxCell id="MJheXWktatmjZYUgOydh-130" style="edgeStyle=none;html=1;exitX=0.5;exitY=0.5;exitDx=0;exitDy=0;exitPerimeter=0;entryX=0;entryY=0.641;entryDx=0;entryDy=0;entryPerimeter=0;" parent="1" source="MJheXWktatmjZYUgOydh-131" target="MJheXWktatmjZYUgOydh-134" edge="1">
          <mxGeometry relative="1" as="geometry">
            <mxPoint x="-480" y="300" as="targetPoint" />
          </mxGeometry>
        </mxCell>
        <mxCell id="MJheXWktatmjZYUgOydh-131" value="Модератор" style="shape=umlActor;verticalLabelPosition=bottom;verticalAlign=top;html=1;outlineConnect=0;fillColor=#e1d5e7;strokeColor=#9673a6;" parent="1" vertex="1">
          <mxGeometry x="-530" y="340" width="30" height="60" as="geometry" />
        </mxCell>
        <mxCell id="MJheXWktatmjZYUgOydh-132" value="&lt;span style=&quot;font-weight: 700;&quot;&gt;Устройство пользователя&lt;/span&gt;" style="swimlane;fontStyle=0;childLayout=stackLayout;horizontal=1;startSize=30;horizontalStack=0;resizeParent=1;resizeParentMax=0;resizeLast=0;collapsible=1;marginBottom=0;whiteSpace=wrap;html=1;fillColor=#e1d5e7;strokeColor=#9673a6;" parent="1" vertex="1">
          <mxGeometry x="-450" y="290" width="160" height="120" as="geometry" />
        </mxCell>
        <mxCell id="MJheXWktatmjZYUgOydh-133" value="Просмотр объявлений" style="text;strokeColor=#9673a6;fillColor=#e1d5e7;align=left;verticalAlign=middle;spacingLeft=4;spacingRight=4;overflow=hidden;points=[[0,0.5],[1,0.5]];portConstraint=eastwest;rotatable=0;whiteSpace=wrap;html=1;" parent="MJheXWktatmjZYUgOydh-132" vertex="1">
          <mxGeometry y="30" width="160" height="30" as="geometry" />
        </mxCell>
        <mxCell id="MJheXWktatmjZYUgOydh-134" value="Публикация объявлений" style="text;strokeColor=#9673a6;fillColor=#e1d5e7;align=left;verticalAlign=middle;spacingLeft=4;spacingRight=4;overflow=hidden;points=[[0,0.5],[1,0.5]];portConstraint=eastwest;rotatable=0;whiteSpace=wrap;html=1;" parent="MJheXWktatmjZYUgOydh-132" vertex="1">
          <mxGeometry y="60" width="160" height="30" as="geometry" />
        </mxCell>
        <mxCell id="MJheXWktatmjZYUgOydh-135" value="Функции модератора" style="text;strokeColor=#9673a6;fillColor=#e1d5e7;align=left;verticalAlign=middle;spacingLeft=4;spacingRight=4;overflow=hidden;points=[[0,0.5],[1,0.5]];portConstraint=eastwest;rotatable=0;whiteSpace=wrap;html=1;" parent="MJheXWktatmjZYUgOydh-132" vertex="1">
          <mxGeometry y="90" width="160" height="30" as="geometry" />
        </mxCell>
        <mxCell id="MJheXWktatmjZYUgOydh-136" style="edgeStyle=orthogonalEdgeStyle;rounded=0;orthogonalLoop=1;jettySize=auto;html=1;exitX=1;exitY=0.5;exitDx=0;exitDy=0;entryX=0.003;entryY=0.907;entryDx=0;entryDy=0;entryPerimeter=0;" parent="1" source="MJheXWktatmjZYUgOydh-133" target="68" edge="1">
          <mxGeometry relative="1" as="geometry" />
        </mxCell>
        <mxCell id="MJheXWktatmjZYUgOydh-137" value="REST" style="text;html=1;strokeColor=none;fillColor=none;align=center;verticalAlign=middle;whiteSpace=wrap;rounded=0;" parent="1" vertex="1">
          <mxGeometry x="-220" y="302.52" width="60" height="30" as="geometry" />
        </mxCell>
        <mxCell id="MJheXWktatmjZYUgOydh-138" value="" style="endArrow=none;html=1;rounded=0;strokeWidth=4;" parent="1" edge="1">
          <mxGeometry width="50" height="50" relative="1" as="geometry">
            <mxPoint x="-370" y="730" as="sourcePoint" />
            <mxPoint x="1970" y="730" as="targetPoint" />
          </mxGeometry>
        </mxCell>
        <mxCell id="MJheXWktatmjZYUgOydh-139" value="&lt;font style=&quot;font-size: 33px;&quot;&gt;Идеи на подумать&lt;/font&gt;" style="text;html=1;align=center;verticalAlign=middle;whiteSpace=wrap;rounded=0;" parent="1" vertex="1">
          <mxGeometry x="315" y="750" width="615" height="30" as="geometry" />
        </mxCell>
        <mxCell id="MJheXWktatmjZYUgOydh-140" value="" style="swimlane;startSize=0;" parent="1" vertex="1">
          <mxGeometry x="850" y="75" width="550" height="565" as="geometry" />
        </mxCell>
        <mxCell id="MJheXWktatmjZYUgOydh-144" value="Docker" style="text;html=1;align=center;verticalAlign=middle;whiteSpace=wrap;rounded=0;" parent="MJheXWktatmjZYUgOydh-140" vertex="1">
          <mxGeometry x="225" y="5" width="60" height="30" as="geometry" />
        </mxCell>
        <mxCell id="63" value="&lt;span style=&quot;font-weight: 700;&quot;&gt;Балансировщик Nginx&lt;/span&gt;" style="swimlane;fontStyle=0;childLayout=stackLayout;horizontal=1;startSize=30;horizontalStack=0;resizeParent=1;resizeParentMax=0;resizeLast=0;collapsible=1;marginBottom=0;whiteSpace=wrap;html=1;" parent="1" vertex="1">
          <mxGeometry x="-40" y="157.52" width="140" height="210" as="geometry" />
        </mxCell>
        <mxCell id="64" value="Балансировка" style="text;strokeColor=none;fillColor=none;align=left;verticalAlign=middle;spacingLeft=4;spacingRight=4;overflow=hidden;points=[[0,0.5],[1,0.5]];portConstraint=eastwest;rotatable=0;whiteSpace=wrap;html=1;" parent="63" vertex="1">
          <mxGeometry y="30" width="140" height="30" as="geometry" />
        </mxCell>
        <mxCell id="65" value="&lt;font color=&quot;#ff0000&quot;&gt;Статика?&lt;/font&gt;" style="text;strokeColor=none;fillColor=none;align=left;verticalAlign=middle;spacingLeft=4;spacingRight=4;overflow=hidden;points=[[0,0.5],[1,0.5]];portConstraint=eastwest;rotatable=0;whiteSpace=wrap;html=1;" parent="63" vertex="1">
          <mxGeometry y="60" width="140" height="30" as="geometry" />
        </mxCell>
        <mxCell id="66" value="." style="text;strokeColor=none;fillColor=none;align=left;verticalAlign=middle;spacingLeft=4;spacingRight=4;overflow=hidden;points=[[0,0.5],[1,0.5]];portConstraint=eastwest;rotatable=0;whiteSpace=wrap;html=1;" parent="63" vertex="1">
          <mxGeometry y="90" width="140" height="30" as="geometry" />
        </mxCell>
        <mxCell id="67" value="." style="text;strokeColor=none;fillColor=none;align=left;verticalAlign=middle;spacingLeft=4;spacingRight=4;overflow=hidden;points=[[0,0.5],[1,0.5]];portConstraint=eastwest;rotatable=0;whiteSpace=wrap;html=1;" parent="63" vertex="1">
          <mxGeometry y="120" width="140" height="30" as="geometry" />
        </mxCell>
        <mxCell id="68" value="." style="text;strokeColor=none;fillColor=none;align=left;verticalAlign=middle;spacingLeft=4;spacingRight=4;overflow=hidden;points=[[0,0.5],[1,0.5]];portConstraint=eastwest;rotatable=0;whiteSpace=wrap;html=1;" parent="63" vertex="1">
          <mxGeometry y="150" width="140" height="30" as="geometry" />
        </mxCell>
        <mxCell id="69" value="." style="text;strokeColor=none;fillColor=none;align=left;verticalAlign=middle;spacingLeft=4;spacingRight=4;overflow=hidden;points=[[0,0.5],[1,0.5]];portConstraint=eastwest;rotatable=0;whiteSpace=wrap;html=1;" parent="63" vertex="1">
          <mxGeometry y="180" width="140" height="30" as="geometry" />
        </mxCell>
        <mxCell id="70" style="edgeStyle=none;html=1;exitX=1;exitY=0.5;exitDx=0;exitDy=0;entryX=0.006;entryY=0.051;entryDx=0;entryDy=0;entryPerimeter=0;" parent="1" source="67" target="44" edge="1">
          <mxGeometry relative="1" as="geometry" />
        </mxCell>
        <mxCell id="71" value="REST" style="text;html=1;strokeColor=none;fillColor=none;align=center;verticalAlign=middle;whiteSpace=wrap;rounded=0;" parent="1" vertex="1">
          <mxGeometry x="110" y="260" width="60" height="30" as="geometry" />
        </mxCell>
        <mxCell id="78" style="edgeStyle=none;html=1;exitX=1;exitY=0.25;exitDx=0;exitDy=0;entryX=0;entryY=0.5;entryDx=0;entryDy=0;" parent="1" source="72" target="73" edge="1">
          <mxGeometry relative="1" as="geometry" />
        </mxCell>
        <mxCell id="79" style="edgeStyle=none;html=1;exitX=1;exitY=0.5;exitDx=0;exitDy=0;entryX=0;entryY=0.5;entryDx=0;entryDy=0;" parent="1" source="72" target="74" edge="1">
          <mxGeometry relative="1" as="geometry" />
        </mxCell>
        <mxCell id="80" style="edgeStyle=none;html=1;exitX=1;exitY=0.75;exitDx=0;exitDy=0;entryX=0;entryY=0.5;entryDx=0;entryDy=0;" parent="1" source="72" target="75" edge="1">
          <mxGeometry relative="1" as="geometry" />
        </mxCell>
        <mxCell id="72" value="Балансировщик&lt;br&gt;NGINX" style="rounded=0;whiteSpace=wrap;html=1;" parent="1" vertex="1">
          <mxGeometry x="-440" y="-790" width="120" height="60" as="geometry" />
        </mxCell>
        <mxCell id="84" style="edgeStyle=none;html=1;exitX=1;exitY=0.25;exitDx=0;exitDy=0;entryX=0.097;entryY=1;entryDx=0;entryDy=0;entryPerimeter=0;" parent="1" source="73" target="83" edge="1">
          <mxGeometry relative="1" as="geometry">
            <Array as="points">
              <mxPoint x="70" y="-890" />
            </Array>
          </mxGeometry>
        </mxCell>
        <mxCell id="92" style="edgeStyle=none;html=1;exitX=1;exitY=0.75;exitDx=0;exitDy=0;entryX=0;entryY=0.5;entryDx=0;entryDy=0;strokeColor=#00FF00;" parent="1" source="73" target="89" edge="1">
          <mxGeometry relative="1" as="geometry" />
        </mxCell>
        <mxCell id="96" style="edgeStyle=none;html=1;exitX=1;exitY=0.5;exitDx=0;exitDy=0;entryX=0;entryY=0.25;entryDx=0;entryDy=0;strokeColor=#0000FF;" parent="1" source="73" target="88" edge="1">
          <mxGeometry relative="1" as="geometry" />
        </mxCell>
        <mxCell id="73" value="API Gateway 1" style="rounded=0;whiteSpace=wrap;html=1;" parent="1" vertex="1">
          <mxGeometry x="-180" y="-905" width="120" height="60" as="geometry" />
        </mxCell>
        <mxCell id="85" style="edgeStyle=none;html=1;exitX=1;exitY=0.25;exitDx=0;exitDy=0;entryX=0.167;entryY=1.008;entryDx=0;entryDy=0;entryPerimeter=0;" parent="1" source="74" target="83" edge="1">
          <mxGeometry relative="1" as="geometry">
            <mxPoint x="120" y="-1080" as="targetPoint" />
            <Array as="points">
              <mxPoint x="80" y="-800" />
            </Array>
          </mxGeometry>
        </mxCell>
        <mxCell id="94" style="edgeStyle=none;html=1;exitX=1;exitY=0.5;exitDx=0;exitDy=0;entryX=0;entryY=0.75;entryDx=0;entryDy=0;strokeColor=#00FF00;" parent="1" source="74" target="89" edge="1">
          <mxGeometry relative="1" as="geometry" />
        </mxCell>
        <mxCell id="95" style="edgeStyle=none;html=1;exitX=1;exitY=0.75;exitDx=0;exitDy=0;entryX=0;entryY=0.5;entryDx=0;entryDy=0;strokeColor=#FF0000;" parent="1" source="74" target="90" edge="1">
          <mxGeometry relative="1" as="geometry" />
        </mxCell>
        <mxCell id="74" value="API Gateway 2" style="rounded=0;whiteSpace=wrap;html=1;" parent="1" vertex="1">
          <mxGeometry x="-180" y="-815" width="120" height="60" as="geometry" />
        </mxCell>
        <mxCell id="86" style="edgeStyle=none;html=1;exitX=1;exitY=0.25;exitDx=0;exitDy=0;entryX=0.25;entryY=1;entryDx=0;entryDy=0;" parent="1" source="75" target="83" edge="1">
          <mxGeometry relative="1" as="geometry">
            <Array as="points">
              <mxPoint x="90" y="-660" />
            </Array>
          </mxGeometry>
        </mxCell>
        <mxCell id="93" style="edgeStyle=none;html=1;exitX=1;exitY=0.5;exitDx=0;exitDy=0;entryX=0;entryY=0.5;entryDx=0;entryDy=0;strokeColor=#0000FF;" parent="1" source="75" target="88" edge="1">
          <mxGeometry relative="1" as="geometry" />
        </mxCell>
        <mxCell id="75" value="API Gateway N" style="rounded=0;whiteSpace=wrap;html=1;" parent="1" vertex="1">
          <mxGeometry x="-180" y="-675" width="120" height="60" as="geometry" />
        </mxCell>
        <mxCell id="76" value="" style="endArrow=none;dashed=1;html=1;dashPattern=1 3;strokeWidth=2;exitX=0.5;exitY=0;exitDx=0;exitDy=0;entryX=0.5;entryY=1;entryDx=0;entryDy=0;" parent="1" source="75" target="74" edge="1">
          <mxGeometry width="50" height="50" relative="1" as="geometry">
            <mxPoint x="-170" y="-695" as="sourcePoint" />
            <mxPoint x="80" y="-715" as="targetPoint" />
          </mxGeometry>
        </mxCell>
        <mxCell id="81" value="Пока балансировка по списку шлюзов из конфига.&lt;br&gt;&lt;br&gt;В целом, можно потом сделать динамическую корректировку этого списка, т.е. дохлый убираются, а свеженькие добавляются." style="text;html=1;strokeColor=none;fillColor=none;align=left;verticalAlign=top;whiteSpace=wrap;rounded=0;" parent="1" vertex="1">
          <mxGeometry x="-440" y="-710" width="145" height="160" as="geometry" />
        </mxCell>
        <mxCell id="83" value="Сервис Авторизации" style="rounded=0;whiteSpace=wrap;html=1;" parent="1" vertex="1">
          <mxGeometry x="60" y="-1160" width="120" height="60" as="geometry" />
        </mxCell>
        <mxCell id="87" value="Шлюзов м.б. несколько, они могут запускаться и выключаться. Шлюзы не должны зависеть друг от друга, балансировщиков или других микросервисов.&amp;nbsp;&lt;br&gt;&lt;br&gt;&lt;br&gt;Шлюз могут слать запросы на разные инстансы&amp;nbsp;&lt;span style=&quot;text-align: center;&quot;&gt;SwapMeet(т.е. хорошо бы иметь механизм динамического составления таких списков)&lt;/span&gt;&lt;br&gt;&amp;nbsp;&amp;nbsp;" style="text;html=1;strokeColor=none;fillColor=none;align=left;verticalAlign=top;whiteSpace=wrap;rounded=0;" parent="1" vertex="1">
          <mxGeometry x="-190" y="-590" width="220" height="180" as="geometry" />
        </mxCell>
        <mxCell id="100" style="edgeStyle=none;html=1;exitX=1;exitY=0.5;exitDx=0;exitDy=0;entryX=0;entryY=0;entryDx=0;entryDy=27.5;entryPerimeter=0;" parent="1" source="88" target="97" edge="1">
          <mxGeometry relative="1" as="geometry" />
        </mxCell>
        <mxCell id="88" value="SwapMeet 1" style="rounded=0;whiteSpace=wrap;html=1;fillColor=#dae8fc;strokeColor=#6c8ebf;" parent="1" vertex="1">
          <mxGeometry x="305" y="-935" width="120" height="60" as="geometry" />
        </mxCell>
        <mxCell id="101" style="edgeStyle=none;html=1;entryX=0;entryY=0.5;entryDx=0;entryDy=0;entryPerimeter=0;" parent="1" source="89" target="97" edge="1">
          <mxGeometry relative="1" as="geometry" />
        </mxCell>
        <mxCell id="89" value="SwapMeet 2" style="rounded=0;whiteSpace=wrap;html=1;fillColor=#d5e8d4;strokeColor=#82b366;" parent="1" vertex="1">
          <mxGeometry x="305" y="-855" width="120" height="60" as="geometry" />
        </mxCell>
        <mxCell id="102" style="edgeStyle=none;html=1;exitX=1;exitY=0.5;exitDx=0;exitDy=0;entryX=0;entryY=0;entryDx=0;entryDy=52.5;entryPerimeter=0;" parent="1" source="90" target="97" edge="1">
          <mxGeometry relative="1" as="geometry" />
        </mxCell>
        <mxCell id="90" value="SwapMeet K" style="rounded=0;whiteSpace=wrap;html=1;fillColor=#ffe6cc;strokeColor=#d79b00;" parent="1" vertex="1">
          <mxGeometry x="305" y="-695" width="120" height="60" as="geometry" />
        </mxCell>
        <mxCell id="91" value="" style="endArrow=none;dashed=1;html=1;dashPattern=1 3;strokeWidth=2;entryX=0.5;entryY=1;entryDx=0;entryDy=0;exitX=0.5;exitY=0;exitDx=0;exitDy=0;" parent="1" source="90" target="89" edge="1">
          <mxGeometry width="50" height="50" relative="1" as="geometry">
            <mxPoint x="290" y="-505" as="sourcePoint" />
            <mxPoint x="340" y="-555" as="targetPoint" />
          </mxGeometry>
        </mxCell>
        <mxCell id="97" value="" style="shape=cylinder3;whiteSpace=wrap;html=1;boundedLbl=1;backgroundOutline=1;size=15;" parent="1" vertex="1">
          <mxGeometry x="600" y="-855" width="60" height="80" as="geometry" />
        </mxCell>
        <mxCell id="99" value="БД + Кэш" style="text;html=1;strokeColor=none;fillColor=none;align=center;verticalAlign=middle;whiteSpace=wrap;rounded=0;" parent="1" vertex="1">
          <mxGeometry x="670" y="-830" width="60" height="30" as="geometry" />
        </mxCell>
        <mxCell id="106" value="Серверов&amp;nbsp;&lt;span style=&quot;text-align: center;&quot;&gt;SwapMeet м.б. несколько. Сервера могут выключаться, добавляться. Сервера&amp;nbsp;&lt;/span&gt;&lt;span style=&quot;text-align: center;&quot;&gt;SwapMeet не должны зависеть друг от друга.&lt;/span&gt;" style="text;html=1;strokeColor=none;fillColor=none;align=left;verticalAlign=top;whiteSpace=wrap;rounded=0;" parent="1" vertex="1">
          <mxGeometry x="305" y="-620" width="160" height="120" as="geometry" />
        </mxCell>
        <mxCell id="109" value="Хранилище пока наверное д.б. одно - общее для всех инстансов серверов&amp;nbsp;&lt;span style=&quot;text-align: center;&quot;&gt;SwapMeet&lt;/span&gt;" style="text;html=1;strokeColor=none;fillColor=none;align=left;verticalAlign=top;whiteSpace=wrap;rounded=0;" parent="1" vertex="1">
          <mxGeometry x="610" y="-755" width="290" height="120" as="geometry" />
        </mxCell>
        <mxCell id="Lk7s7Ulb04i7ixbrK_1r-110" value="" style="swimlane;startSize=0;dashed=1;strokeWidth=4;strokeColor=#67AB9F;" parent="1" vertex="1">
          <mxGeometry x="130" y="-950" width="20" height="560" as="geometry" />
        </mxCell>
        <mxCell id="Lk7s7Ulb04i7ixbrK_1r-111" value="&lt;font color=&quot;#568f85&quot;&gt;Тут какбуд-то потом можно кафку поставить&lt;/font&gt;" style="text;html=1;align=center;verticalAlign=middle;whiteSpace=wrap;rounded=0;" parent="1" vertex="1">
          <mxGeometry x="80" y="-380" width="140" height="30" as="geometry" />
        </mxCell>
        <mxCell id="Lk7s7Ulb04i7ixbrK_1r-113" value="Кажется, БД Авторизации тоже д.б. общая, как и Хранилище. при этом м.б. одновременно запущенно несколько инстанов Авторизации&amp;nbsp;&lt;div&gt;&lt;br&gt;&lt;/div&gt;&lt;div&gt;&lt;br&gt;&lt;/div&gt;" style="text;html=1;align=left;verticalAlign=top;whiteSpace=wrap;rounded=0;" parent="1" vertex="1">
          <mxGeometry x="120" y="-1250" width="210" height="60" as="geometry" />
        </mxCell>
        <mxCell id="dJNBDPaRLZTKmS_XL867-112" value="" style="shape=cylinder3;whiteSpace=wrap;html=1;boundedLbl=1;backgroundOutline=1;size=15;" vertex="1" parent="1">
          <mxGeometry x="270" y="-1180" width="60" height="80" as="geometry" />
        </mxCell>
        <mxCell id="dJNBDPaRLZTKmS_XL867-114" style="edgeStyle=orthogonalEdgeStyle;rounded=0;orthogonalLoop=1;jettySize=auto;html=1;exitX=1;exitY=0.5;exitDx=0;exitDy=0;entryX=0;entryY=0.5;entryDx=0;entryDy=0;entryPerimeter=0;" edge="1" parent="1" source="dJNBDPaRLZTKmS_XL867-111" target="dJNBDPaRLZTKmS_XL867-112">
          <mxGeometry relative="1" as="geometry" />
        </mxCell>
        <mxCell id="dJNBDPaRLZTKmS_XL867-115" value="БД" style="text;html=1;align=center;verticalAlign=middle;whiteSpace=wrap;rounded=0;" vertex="1" parent="1">
          <mxGeometry x="335" y="-1155" width="60" height="30" as="geometry" />
        </mxCell>
      </root>
    </mxGraphModel>
  </diagram>
</mxfile>
